<svg width="500" height="560" viewBox="0 0 500 560" fill="none" xmlns="http://www.w3.org/2000/svg">
<g filter="url(#filter0_d_2_27)">
<path opacity="0.67" d="M278.424 541.149H211.082C198.063 541.149 187.414 529.507 187.414 515.275V383.548C187.414 369.317 198.063 357.675 211.082 357.675H278.419C291.438 357.675 302.088 369.317 302.088 383.548V515.275C302.093 529.507 291.443 541.149 278.424 541.149Z" fill="#A7ADFF"/>
<path d="M399.821 541.149H332.484C319.466 541.149 308.816 529.507 308.816 515.275V279.157C308.816 264.925 319.466 253.283 332.484 253.283H399.821C412.84 253.283 423.49 264.925 423.49 279.157V515.275C423.495 529.507 412.84 541.149 399.821 541.149Z" fill="#E3E5FC"/>
<path d="M157.243 541.149H89.9064C76.8876 541.149 66.2377 529.507 66.2377 515.275V435.267C66.2377 421.035 76.8876 409.393 89.9064 409.393H157.243C170.262 409.393 180.912 421.035 180.912 435.267V515.275C180.917 529.507 170.262 541.149 157.243 541.149Z" fill="#E3E5FC"/>
<path d="M461.999 183.587H338.186C325.167 183.587 314.517 171.945 314.517 157.714V128.819C314.517 114.588 325.167 102.946 338.186 102.946H461.999C475.018 102.946 485.668 114.588 485.668 128.819V157.714C485.668 171.945 475.018 183.587 461.999 183.587Z" fill="#FDC510"/>
<path opacity="0.67" d="M431.966 156.77H308.152C295.134 156.77 284.484 145.128 284.484 130.897V67.5422C284.484 53.3107 295.134 41.6687 308.152 41.6687H431.966C444.985 41.6687 455.634 53.3107 455.634 67.5422V130.897C455.64 145.128 444.985 156.77 431.966 156.77Z" fill="#0112FF"/>
<path d="M318.081 124.089C330.584 142.901 354.669 147.073 371.873 133.406L326.604 65.2864C309.395 78.9482 305.578 105.276 318.081 124.089Z" fill="white"/>
<path d="M330.652 62.0694L351.394 93.2776L380.496 70.1664C368.693 53.1208 346.546 49.4435 330.652 62.0694Z" fill="white"/>
<path d="M383.891 75.2018C383.749 74.9889 383.586 74.799 383.438 74.5861L354.337 97.6973L375.926 130.183C392.014 117.407 395.583 92.7942 383.891 75.2018Z" fill="white"/>
<path d="M437.162 88.2019H405.159C403.522 88.2019 402.185 86.7402 402.185 84.9504C402.185 83.1607 403.522 81.699 405.159 81.699H437.162C438.799 81.699 440.136 83.1607 440.136 84.9504C440.136 86.7402 438.799 88.2019 437.162 88.2019Z" fill="white"/>
<path d="M437.162 99.2453H405.159C403.522 99.2453 402.185 97.7836 402.185 95.9938C402.185 94.2041 403.522 92.7424 405.159 92.7424H437.162C438.799 92.7424 440.136 94.2041 440.136 95.9938C440.136 97.7778 438.799 99.2453 437.162 99.2453Z" fill="white"/>
<path d="M437.162 110.283H405.159C403.522 110.283 402.185 108.821 402.185 107.032C402.185 105.242 403.522 103.78 405.159 103.78H437.162C438.799 103.78 440.136 105.242 440.136 107.032C440.136 108.821 438.799 110.283 437.162 110.283Z" fill="white"/>
<path d="M437.162 121.321H405.159C403.522 121.321 402.185 119.859 402.185 118.069C402.185 116.279 403.522 114.818 405.159 114.818H437.162C438.799 114.818 440.136 116.279 440.136 118.069C440.136 119.859 438.799 121.321 437.162 121.321Z" fill="white"/>
<path d="M58.199 504.042C55.8248 502.58 52.3082 503.386 51.1763 506.096C48.0177 499.691 49.6023 491.899 50.3867 484.677C50.6657 482.087 50.8078 479.342 49.7813 476.989C48.7495 474.635 46.1646 472.903 43.9431 473.858C39.3999 475.809 40.8529 485.69 36.0044 486.288C33.2511 486.628 31.4717 483.359 29.9292 480.844C27.8077 477.386 24.8175 474.577 21.3693 472.805C20.1533 472.183 18.5266 471.763 17.6211 472.851C16.7788 473.858 17.1631 475.452 17.6211 476.718C19.1794 481.017 21.0693 485.172 23.2593 489.12C23.5646 489.672 23.891 490.294 23.7646 490.927C23.4804 492.365 21.5483 492.153 20.3059 491.589C15.8207 489.546 11.3354 487.508 6.85015 485.465C5.57617 486.76 6.09734 489.149 7.1976 490.616C8.29786 492.083 9.85086 493.137 10.7616 494.754C12.1303 497.194 11.7302 500.301 12.0303 503.144C12.3304 505.993 14.1413 509.244 16.7419 508.876C14.6099 509.946 14.5414 513.491 15.9891 515.505C17.4368 517.52 19.7795 518.435 21.9537 519.401C24.1226 520.374 26.4074 521.675 27.3444 524.022C28.1446 526.019 27.7814 528.333 28.1762 530.468C30.3399 542.167 45.4013 546.719 51.6449 537.414C56.0038 530.94 67.5697 509.82 58.199 504.042Z" fill="#978CFF"/>
<path d="M1.60149 537.431C0.785507 536.453 -0.0831182 535.319 0.00637651 534.001C0.122193 532.281 1.97526 531.176 3.51773 531.532C5.06019 531.889 6.23415 533.293 6.97643 534.813C7.08172 532.764 7.54499 530.738 8.33465 528.874C8.63998 528.149 9.20853 527.337 9.91923 527.51C10.3351 527.613 10.6141 528.028 10.8194 528.436C11.6512 530.1 11.8355 532.142 11.3143 533.949C12.2461 530.347 15.0362 527.389 18.358 526.48C18.7739 526.365 19.2372 526.29 19.6215 526.503C20.4954 526.998 20.2322 528.425 19.8373 529.415C17.979 534.088 15.9364 539.762 12.2198 543.094C8.56101 546.363 3.89676 540.182 1.60149 537.431Z" fill="#FDC510"/>
<path d="M45.6434 543.474C45.2065 543.474 44.8116 543.157 44.6906 542.674L33.6774 497.579C33.5353 497.004 33.8512 496.411 34.3776 496.261C34.8988 496.106 35.4463 496.451 35.5832 497.027L46.5963 542.121C46.7384 542.697 46.4225 543.29 45.8961 543.439C45.8119 543.462 45.7276 543.474 45.6434 543.474Z" fill="white"/>
<path d="M38.7524 515.27C38.605 515.27 38.4523 515.235 38.3154 515.154L23.8331 507.253C23.3435 506.988 23.1487 506.338 23.3909 505.809C23.6331 505.273 24.2279 505.061 24.7123 505.325L39.1946 513.227C39.6842 513.491 39.879 514.142 39.6368 514.671C39.4631 515.051 39.1156 515.27 38.7524 515.27Z" fill="white"/>
<path d="M42.6006 531.026C42.4479 531.026 42.2952 530.986 42.1478 530.905C41.6635 530.629 41.474 529.984 41.7267 529.455L47.7281 516.754C47.9808 516.225 48.5704 516.018 49.0547 516.294C49.539 516.57 49.7286 517.215 49.4759 517.744L43.4745 530.445C43.306 530.813 42.9586 531.026 42.6006 531.026Z" fill="white"/>
<path d="M395.32 501.073C395.199 500.612 395.094 500.146 394.999 499.674C393.862 493.873 395.315 487.169 399.663 483.618C403.927 480.131 410.782 479.44 412.419 473.898C413.582 469.974 411.271 465.963 409.666 462.228C408.06 458.493 407.544 453.106 410.829 451.075C413.519 449.412 417.073 451.202 419.921 449.895C424.769 447.674 424.048 438.656 428.828 436.268C431.96 434.703 435.703 436.959 439.036 436.015C443.858 434.645 445.121 427.619 443.947 422.33C442.773 417.036 440.131 411.92 440.71 406.51C442.279 391.784 474.107 381.045 474.681 400.686C474.839 406.078 471.538 410.751 469.653 415.741C467.769 420.73 468.127 427.947 472.77 429.782C475.913 431.025 480.266 429.426 482.193 432.418C485.747 437.937 473.507 442.224 474.233 448.923C474.734 453.521 480.609 454.372 483.478 457.785C487.252 462.274 484.504 469.945 479.951 473.461C475.397 476.977 469.632 477.996 464.626 480.678C462.62 481.748 460.588 483.302 459.999 485.65C458.672 490.915 464.963 494.357 469.901 495.168C474.839 495.98 481.256 498.04 481.251 503.501C481.246 507.875 476.802 510.499 472.902 511.5C469.001 512.501 464.494 513.204 462.289 516.858C460.183 520.357 461.162 525.058 460.02 529.052C457.44 538.064 430.349 543.612 421.953 541.373C408.765 537.863 412.356 525.714 403.133 514.832C399.737 510.844 396.678 506.281 395.32 501.073Z" fill="#FDC510"/>
<path d="M410.734 542.231C410.408 542.231 410.087 542.052 409.897 541.724L389.187 505.423C388.898 504.917 389.04 504.255 389.503 503.938C389.961 503.628 390.572 503.777 390.861 504.284L411.571 540.585C411.861 541.091 411.719 541.753 411.256 542.07C411.098 542.173 410.913 542.231 410.734 542.231Z" fill="white"/>
<path d="M403.996 530.416C403.912 530.416 403.827 530.405 403.743 530.382C403.217 530.232 402.901 529.639 403.043 529.064L406.66 514.101C406.797 513.526 407.334 513.181 407.865 513.336C408.392 513.486 408.708 514.078 408.565 514.654L404.949 529.616C404.833 530.1 404.433 530.416 403.996 530.416Z" fill="white"/>
<path d="M395.457 515.454C395.404 515.454 395.352 515.448 395.299 515.442L383.949 513.468C383.412 513.376 383.044 512.824 383.128 512.237C383.212 511.65 383.712 511.241 384.26 511.339L395.61 513.313C396.147 513.405 396.515 513.957 396.431 514.544C396.357 515.074 395.936 515.454 395.457 515.454Z" fill="white"/>
<path d="M420.647 546C420.542 546 420.431 545.983 420.326 545.943C419.81 545.747 419.536 545.137 419.715 544.573L452.539 440.532C452.718 439.968 453.281 439.675 453.792 439.865C454.308 440.06 454.581 440.67 454.402 441.234L421.579 545.275C421.442 545.724 421.058 546 420.647 546Z" fill="white"/>
<path d="M434.077 505.93C433.576 505.93 433.15 505.515 433.097 504.957C433.04 504.364 433.44 503.835 433.982 503.777L455.35 501.441C455.876 501.383 456.377 501.815 456.429 502.408C456.487 503 456.087 503.53 455.545 503.587L434.177 505.924C434.145 505.93 434.108 505.93 434.077 505.93Z" fill="white"/>
<path d="M442.916 475.257C442.447 475.257 442.036 474.894 441.947 474.376C441.847 473.789 442.205 473.225 442.737 473.122L460.851 469.473C461.399 469.364 461.899 469.749 461.999 470.336C462.099 470.923 461.741 471.487 461.209 471.591L443.094 475.239C443.037 475.251 442.979 475.257 442.916 475.257Z" fill="white"/>
<path d="M438.514 489.149C438.251 489.149 437.988 489.034 437.793 488.809L422.774 471.269C422.4 470.831 422.421 470.152 422.821 469.744C423.221 469.335 423.843 469.364 424.216 469.795L439.236 487.336C439.609 487.773 439.588 488.452 439.188 488.861C438.999 489.051 438.757 489.149 438.514 489.149Z" fill="white"/>
<path d="M157.691 183.708L113.507 197.629C109.421 198.918 105.12 196.317 103.941 191.851L94.8865 157.512C93.7073 153.047 96.0868 148.345 100.172 147.056L144.356 133.135C148.441 131.846 152.742 134.447 153.921 138.913L162.976 173.252C164.15 177.717 161.771 182.419 157.691 183.708Z" fill="#FDC510"/>
<path d="M97.2818 151.619L145.256 88.2019L151.41 102.94L142.05 103.774L104.078 151.619H97.2818Z" fill="#FDC510"/>
<path d="M205.255 315.907L197.637 344.773L187.929 343.161L197.632 313.53C197.632 313.53 203.054 313.628 205.255 315.907Z" fill="#EAC2AB"/>
<path d="M236.625 351.621C236.625 351.621 229.745 354.36 216.405 355.96C203.065 357.56 185.176 356.691 181.975 355.626C177.106 354.015 180.086 337.729 184.544 337.533C189.003 337.338 191.014 343.858 198.637 337.631C205.165 332.296 210.945 341.567 222.785 343.587C234.625 345.613 239.42 346.419 236.625 351.621Z" fill="#FDC510"/>
<path d="M217.042 317.357C219.079 293.624 226.56 259.924 221.901 236.042C217.163 211.763 201.306 203.441 185.545 186.108C169.262 168.193 169.336 185.32 169.336 185.32L167.888 190.447C175.579 197.468 153.227 202.06 160.723 209.3C168.799 217.097 175.121 220.976 182.923 229.067C192.867 239.38 198.216 234.943 197.126 250.095C196.816 254.394 189.814 293.578 187.756 310.066C185.376 329.149 173.389 323.331 205.702 329.408C225.796 333.177 215.773 332.21 217.042 317.357Z" fill="#5A54FF"/>
<path d="M138.349 360.783L137.96 390.282L128.294 391.162L130.49 360.409C130.49 360.409 135.696 359.154 138.349 360.783Z" fill="#EAC2AB"/>
<path d="M176.5 401.129C176.5 401.129 169.562 403.408 156.327 404.162C143.093 404.916 128.337 405.146 125.689 403.092C123.041 401.037 121.624 383.974 126.031 384.055C130.437 384.135 132.032 390.684 139.902 385.016C146.646 380.159 151.795 389.649 163.339 392.371C174.884 395.093 179.559 396.174 176.5 401.129Z" fill="#FDC510"/>
<path d="M159.186 373.88C158.923 372.764 157.901 371.786 157.043 370.807C149.163 361.83 153.248 350.907 156.327 341.28C163.64 318.439 163.829 294.177 166.314 270.502C168.736 247.39 174.758 224.815 183.55 203.395C186.745 195.615 191.372 183.524 178.712 183.789C172.715 183.915 167.014 182.707 161.392 180.675C158.433 179.605 161.708 179.127 158.433 179.605C147.267 181.239 139.939 201.019 140.94 208.523C142.935 223.462 142.103 237.325 140.329 252.483C137.818 273.972 137.776 295.903 131.811 316.626C128.889 326.783 125.778 336.877 122.725 346.988C120.94 352.887 113.828 365.26 116.239 371.291C119.55 379.572 140.871 376.7 147.667 377.69C152.774 378.421 160.086 377.673 159.186 373.88Z" fill="#5A54FF"/>
<path d="M181.528 71.818L178.596 93.7552C173.416 95.3148 167.983 98.2842 162.518 98.2785C162.766 94.2099 166.667 89.5543 168.457 85.7158C170.631 81.0602 172.163 76.2377 171.921 71.0124C171.289 57.3563 181.528 71.818 181.528 71.818Z" fill="#D4A79A"/>
<path d="M190.625 29.296C190.614 29.319 199.053 35.1659 194.578 49.1558C189.793 64.1239 182.891 76.6578 178.464 75.363C166.219 71.7778 162.576 62.4205 158.881 54.3466C154.348 44.4426 166.714 22.2522 166.714 22.2522L177.085 17.6138L190.625 29.296Z" fill="#EAC2AB"/>
<path d="M206.271 28.358C207.502 25.2389 206.123 19.3805 204.007 17.2167C203.191 16.3823 202.122 15.8011 201.006 15.8183C200.169 15.8298 199.316 16.1751 198.506 15.9622C196.063 15.3292 196.068 13.2057 193.826 12.2561C192.157 11.5483 190.383 12.9927 188.603 13.269C187.256 13.4761 185.924 12.9985 184.618 12.6014C180.944 11.485 177.632 9.36148 173.837 8.56732C170.636 7.89976 167.235 7.98609 164.182 9.34421C160.997 10.7599 158.559 13.6488 157.106 17.1074C156.238 19.1734 155.822 21.5213 156.206 23.7427C155.89 21.9184 152.584 23.57 152.016 24.2318C149.789 26.8272 144.182 34.4235 144.988 37.7268C145.625 40.3452 143.645 42.7162 144.209 45.3634C144.877 48.517 152.958 50.3412 154.406 53.2129C156.069 56.5046 159.739 58.4209 163.076 57.8282C162.297 54.9105 161.529 51.9296 161.586 48.868C161.65 45.8065 158.812 31.7303 173.716 29.9923C179.638 29.3018 186.266 34.8609 192.088 35.5917C194.852 35.937 197.674 35.6205 200.364 34.7631C202.443 34.1013 204.644 31.2009 205.934 29.0543C206.065 28.8299 206.176 28.5997 206.271 28.358Z" fill="#4B369D"/>
<path d="M196.853 26.9423C200.517 24.8015 201.58 19.9618 201.954 15.6629C202.359 10.9901 202.28 10.1556 198.432 6.86389C196.947 5.59209 193.273 4.23396 193.268 4.23396C183.96 0.827133 173.437 -1.6244 163.682 1.30478C154.716 3.99801 148.526 11.8418 145.451 20.5718C143.888 25.0087 143.019 29.7794 142.998 34.4983C142.977 39.6776 144.946 45.4266 141.619 49.9844C142.845 50.0823 144.093 49.9557 145.272 49.6046C140.166 50.416 132.474 51.7972 132.29 58.4439C132.211 61.3559 134.064 63.8937 135.628 66.328C137.191 68.7623 138.571 71.8008 137.486 74.494C136.117 77.8951 131.364 79.2359 130.753 82.8672C130.026 87.1833 134.012 89.1572 135.622 92.518C137.649 96.7535 135.707 101.68 135.243 106.07C134.828 109.966 138.344 111.756 140.639 114.081C147.294 120.82 147.209 128.48 139.929 135.926C139.781 136.076 139.839 136.369 139.945 136.554C140.055 136.749 140.292 136.83 140.508 136.887C149.915 139.402 162.139 130.114 164.308 120.854C165.287 116.682 162.792 112.781 163.887 108.769C165.061 104.459 169.757 102.842 172.884 100.339C178.638 95.7406 184.792 87.7818 183.944 79.8229C183.428 74.9774 181.939 69.5161 178.669 65.5684C175.811 62.1097 167.272 60.2222 167.362 55.0544C167.398 52.7697 169.199 51.003 170.557 49.1845C173.995 44.5749 167.404 40.5581 170.657 38.1526C172.752 36.6046 175.232 35.5169 177.78 35.0508C180.48 34.5559 183.234 34.0897 185.334 32.1446C187.298 30.3261 190.009 26.2172 193.046 26.4934C196.837 26.8387 201.19 25.8719 203.154 22.5457" fill="#4B369D"/>
<path d="M185.997 136.329C184.644 123.099 190.904 102.042 183.355 91.2979C182.581 90.1988 181.749 89.0996 180.628 88.3803C166.43 79.2762 156.601 93.4214 152.063 105.869C148.131 116.659 148.615 126.592 148.32 137.848C147.831 156.822 143.509 175.283 137.991 193.319C136.023 199.752 135.501 207.245 141.066 208.223C148.589 209.541 150.21 200.075 157.391 197.629C163.95 195.396 169.246 196.766 176.411 197.169C179.964 197.37 191.572 194.982 190.867 188.226C189.188 172.222 186.671 158.416 186.587 147.269C186.561 143.666 186.371 140.001 185.997 136.329Z" fill="#D7384E"/>
<path d="M166.777 101.639C166.777 101.639 162.681 121.154 158.37 144.938C154.058 168.728 160.455 186.672 160.455 186.672C161.386 189.296 162.345 191.914 163.387 194.452C165.429 199.453 166.103 202.779 165.308 208.195C164.64 212.758 166.051 216.781 169.115 220.222C171.305 222.68 174.053 224.584 175.948 227.312C176.253 227.749 176.758 228.244 177.216 227.991C177.606 227.778 177.59 227.214 177.522 226.765C176.901 222.72 176.279 218.674 175.653 214.629C175.532 213.84 175.411 213.023 175.59 212.246C175.769 211.469 176.332 210.733 177.106 210.6C178.032 210.445 178.869 211.164 179.549 211.826C180.58 212.839 181.296 216.528 183.202 215.129C184.002 211.584 180.786 204.897 178.796 202.008C176.837 198.74 173.089 199.396 171.926 195.908C170.673 192.145 169.425 188.387 168.214 184.612C159.633 147.148 171.731 131.766 171.731 131.766C171.731 131.766 169.078 129.343 170.973 110.726C172.879 92.1209 166.777 101.639 166.777 101.639Z" fill="#EAC2AB"/>
<path d="M176.39 130.235C176.39 130.235 186.224 95.8327 172.421 96.4657C158.617 97.0988 154.127 136.83 154.127 136.83L176.764 135.449L176.39 130.235Z" fill="#F44E4E"/>
</g>
<defs>
<filter id="filter0_d_2_27" x="0" y="0" width="499.668" height="560" filterUnits="userSpaceOnUse" color-interpolation-filters="sRGB">
<feFlood flood-opacity="0" result="BackgroundImageFix"/>
<feColorMatrix in="SourceAlpha" type="matrix" values="0 0 0 0 0 0 0 0 0 0 0 0 0 0 0 0 0 0 127 0" result="hardAlpha"/>
<feOffset dx="10" dy="10"/>
<feGaussianBlur stdDeviation="2"/>
<feColorMatrix type="matrix" values="0 0 0 0 0 0 0 0 0 0 0 0 0 0 0 0 0 0 0.25 0"/>
<feBlend mode="normal" in2="BackgroundImageFix" result="effect1_dropShadow_2_27"/>
<feBlend mode="normal" in="SourceGraphic" in2="effect1_dropShadow_2_27" result="shape"/>
</filter>
</defs>
</svg>
